<svg width="511" height="511" viewBox="0 0 511 511" fill="none" xmlns="http://www.w3.org/2000/svg">
<circle cx="248" cy="248" r="248" fill="#161616"/>
<g filter="url(#filter0_d)">
<path d="M248 0C385 0 496 111 496 248C496 385 385 496 248 496C111 496 0 385 0 248C0 111 111 0 248 0ZM361.9 231L226.4 95.5C217 86.1 201.8 86.1 192.5 95.5L175.5 112.5C166.1 121.9 166.1 137.1 175.5 146.4L277.1 248L175.5 349.6C166.1 359 166.1 374.2 175.5 383.5L192.5 400.5C201.9 409.9 217.1 409.9 226.4 400.5L361.9 265C371.3 255.6 371.3 240.4 361.9 231Z" fill="white"/>
</g>
<defs>
<filter id="filter0_d" x="0" y="0" width="511" height="511" filterUnits="userSpaceOnUse" color-interpolation-filters="sRGB">
<feFlood flood-opacity="0" result="BackgroundImageFix"/>
<feColorMatrix in="SourceAlpha" type="matrix" values="0 0 0 0 0 0 0 0 0 0 0 0 0 0 0 0 0 0 127 0"/>
<feOffset dx="11" dy="11"/>
<feGaussianBlur stdDeviation="2"/>
<feColorMatrix type="matrix" values="0 0 0 0 0 0 0 0 0 0 0 0 0 0 0 0 0 0 0.25 0"/>
<feBlend mode="normal" in2="BackgroundImageFix" result="effect1_dropShadow"/>
<feBlend mode="normal" in="SourceGraphic" in2="effect1_dropShadow" result="shape"/>
</filter>
</defs>
</svg>
