<svg width="511" height="511" viewBox="0 0 511 511" fill="none" xmlns="http://www.w3.org/2000/svg">
<circle cx="248" cy="248" r="248" fill="#161616"/>
<g filter="url(#filter0_d)">
<path d="M248 496C111 496 0 385 0 248C0 111 111 0 248 0C385 0 496 111 496 248C496 385 385 496 248 496ZM134.1 265L269.6 400.5C279 409.9 294.2 409.9 303.5 400.5L320.5 383.5C329.9 374.1 329.9 358.9 320.5 349.6L218.9 248L320.5 146.4C329.9 137 329.9 121.8 320.5 112.5L303.5 95.5C294.1 86.1 278.9 86.1 269.6 95.5L134.1 231C124.7 240.4 124.7 255.6 134.1 265Z" fill="white"/>
</g>
<defs>
<filter id="filter0_d" x="0" y="0" width="511" height="511" filterUnits="userSpaceOnUse" color-interpolation-filters="sRGB">
<feFlood flood-opacity="0" result="BackgroundImageFix"/>
<feColorMatrix in="SourceAlpha" type="matrix" values="0 0 0 0 0 0 0 0 0 0 0 0 0 0 0 0 0 0 127 0"/>
<feOffset dx="11" dy="11"/>
<feGaussianBlur stdDeviation="2"/>
<feColorMatrix type="matrix" values="0 0 0 0 0 0 0 0 0 0 0 0 0 0 0 0 0 0 0.25 0"/>
<feBlend mode="normal" in2="BackgroundImageFix" result="effect1_dropShadow"/>
<feBlend mode="normal" in="SourceGraphic" in2="effect1_dropShadow" result="shape"/>
</filter>
</defs>
</svg>
