<svg width="159" height="82" viewBox="0 0 159 82" fill="none" xmlns="http://www.w3.org/2000/svg">
<path d="M12.1111 54.75H39.8889V72.25H12.1111V54.75ZM46.8333 63.5C46.8333 65.9163 48.6988 67.875 51 67.875V76.625C51 79.0413 49.1345 81 46.8333 81H5.16664C2.86543 81 0.999977 79.0413 0.999977 76.625V67.875C3.30119 67.875 5.16664 65.9163 5.16664 63.5C5.16664 61.0837 3.30119 59.125 0.999977 59.125V50.375C0.999977 47.9587 2.86543 46 5.16664 46H46.8333C49.1345 46 51 47.9587 51 50.375V59.125C48.6988 59.125 46.8333 61.0837 46.8333 63.5ZM42.6666 54.0208C42.6666 52.8127 41.7339 51.8333 40.5833 51.8333H11.4166C10.266 51.8333 9.33331 52.8127 9.33331 54.0208V72.9792C9.33331 74.1873 10.266 75.1667 11.4166 75.1667H40.5833C41.7339 75.1667 42.6666 74.1873 42.6666 72.9792V54.0208Z" fill="url(#paint0_linear)"/>
<path d="M11.8236 1.16406L19.5995 25.4009L27.3514 1.16406H38.4052V36H29.9833V27.8652L30.7968 11.2129L22.3749 36H16.8241L8.3783 11.189L9.19177 27.8652V36H0.793823V1.16406H11.8236Z" fill="url(#paint1_linear)"/>
<path d="M75.715 19.2998C75.715 22.6973 75.085 25.7039 73.8249 28.3198C72.5648 30.9357 70.7704 32.9535 68.4416 34.373C66.1287 35.7767 63.4889 36.4785 60.5221 36.4785C57.5553 36.4785 54.9235 35.8006 52.6266 34.4448C50.3298 33.0731 48.5353 31.1191 47.2433 28.583C45.9673 26.0469 45.2974 23.1359 45.2336 19.8501V17.8882C45.2336 14.4748 45.8556 11.4681 47.0998 8.86816C48.3599 6.25228 50.1543 4.23454 52.4831 2.81494C54.8278 1.39535 57.4915 0.685547 60.4743 0.685547C63.4251 0.685547 66.057 1.38737 68.3698 2.79102C70.6826 4.19466 72.4771 6.19645 73.7531 8.79639C75.0451 11.3804 75.6991 14.3472 75.715 17.6968V19.2998ZM67.1735 17.8403C67.1735 14.3791 66.5913 11.7552 65.4269 9.96875C64.2785 8.16634 62.6276 7.26514 60.4743 7.26514C56.2634 7.26514 54.0383 10.4233 53.799 16.7397L53.7751 19.2998C53.7751 22.7132 54.3413 25.3371 55.4738 27.1714C56.6063 29.0057 58.2891 29.9229 60.5221 29.9229C62.6436 29.9229 64.2785 29.0216 65.4269 27.2192C66.5754 25.4168 67.1576 22.8249 67.1735 19.4434V17.8403Z" fill="url(#paint2_linear)"/>
<path d="M95.4873 26.5254L102.426 1.16406H111.805L100.081 36H90.8935L79.2656 1.16406H88.5727L95.4873 26.5254Z" fill="url(#paint3_linear)"/>
<path d="M125.763 36H117.389V1.16406H125.763V36Z" fill="url(#paint4_linear)"/>
<path d="M155.656 21.2378H142.449V29.54H158.048V36H134.051V1.16406H158.096V7.64795H142.449V14.9932H155.656V21.2378Z" fill="url(#paint5_linear)"/>
<path d="M60.0671 81V46.1641H72.5802C77.0623 46.1641 80.4678 46.9855 82.7966 48.6284C85.1413 50.2713 86.3136 52.6559 86.3136 55.7822C86.3136 57.5846 85.8989 59.1239 85.0695 60.3999C84.2401 61.6759 83.0199 62.617 81.4089 63.2231C83.2272 63.7017 84.6229 64.5949 85.5959 65.9028C86.5689 67.2108 87.0553 68.8058 87.0553 70.688C87.0553 74.1014 85.9707 76.6694 83.8014 78.3921C81.6481 80.0988 78.45 80.9681 74.2072 81H60.0671ZM68.465 66.1899V74.54H73.9679C75.4832 74.54 76.6476 74.1971 77.4611 73.5112C78.2746 72.8094 78.6813 71.8285 78.6813 70.5684C78.6813 67.6654 77.2378 66.2059 74.3508 66.1899H68.465ZM68.465 60.687H72.8434C74.6777 60.6711 75.9857 60.3361 76.7673 59.6821C77.5488 59.0282 77.9396 58.0632 77.9396 56.7871C77.9396 55.3197 77.5169 54.2669 76.6716 53.6289C75.8262 52.9749 74.4624 52.6479 72.5802 52.6479H68.465V60.687Z" fill="url(#paint6_linear)"/>
<path d="M123.647 64.2998C123.647 67.6973 123.017 70.7039 121.757 73.3198C120.497 75.9357 118.703 77.9535 116.374 79.373C114.061 80.7767 111.421 81.4785 108.455 81.4785C105.488 81.4785 102.856 80.8006 100.559 79.4448C98.2622 78.0731 96.4678 76.1191 95.1758 73.583C93.8997 71.0469 93.2298 68.1359 93.166 64.8501V62.8882C93.166 59.4748 93.7881 56.4681 95.0322 53.8682C96.2923 51.2523 98.0867 49.2345 100.416 47.8149C102.76 46.3953 105.424 45.6855 108.407 45.6855C111.358 45.6855 113.989 46.3874 116.302 47.791C118.615 49.1947 120.409 51.1965 121.686 53.7964C122.978 56.3804 123.631 59.3472 123.647 62.6968V64.2998ZM115.106 62.8403C115.106 59.3791 114.524 56.7552 113.359 54.9688C112.211 53.1663 110.56 52.2651 108.407 52.2651C104.196 52.2651 101.971 55.4233 101.731 61.7397L101.707 64.2998C101.707 67.7132 102.274 70.3371 103.406 72.1714C104.539 74.0057 106.221 74.9229 108.455 74.9229C110.576 74.9229 112.211 74.0216 113.359 72.2192C114.508 70.4168 115.09 67.8249 115.106 64.4434V62.8403Z" fill="url(#paint7_linear)"/>
<path d="M142.893 57.7441L148.588 46.1641H158.182L148.444 63.4385L158.445 81H148.755L142.893 69.2046L137.032 81H127.366L137.343 63.4385L127.629 46.1641H137.199L142.893 57.7441Z" fill="url(#paint8_linear)"/>
<defs>
<linearGradient id="paint0_linear" x1="0.999998" y1="1" x2="220.5" y2="113" gradientUnits="userSpaceOnUse">
<stop stop-color="#D94032"/>
<stop offset="1" stop-color="white"/>
</linearGradient>
<linearGradient id="paint1_linear" x1="0.999998" y1="1" x2="220.5" y2="113" gradientUnits="userSpaceOnUse">
<stop stop-color="#D94032"/>
<stop offset="1" stop-color="white"/>
</linearGradient>
<linearGradient id="paint2_linear" x1="0.999998" y1="1" x2="220.5" y2="113" gradientUnits="userSpaceOnUse">
<stop stop-color="#D94032"/>
<stop offset="1" stop-color="white"/>
</linearGradient>
<linearGradient id="paint3_linear" x1="0.999998" y1="1" x2="220.5" y2="113" gradientUnits="userSpaceOnUse">
<stop stop-color="#D94032"/>
<stop offset="1" stop-color="white"/>
</linearGradient>
<linearGradient id="paint4_linear" x1="0.999998" y1="1" x2="220.5" y2="113" gradientUnits="userSpaceOnUse">
<stop stop-color="#D94032"/>
<stop offset="1" stop-color="white"/>
</linearGradient>
<linearGradient id="paint5_linear" x1="0.999998" y1="1" x2="220.5" y2="113" gradientUnits="userSpaceOnUse">
<stop stop-color="#D94032"/>
<stop offset="1" stop-color="white"/>
</linearGradient>
<linearGradient id="paint6_linear" x1="0.999998" y1="1" x2="220.5" y2="113" gradientUnits="userSpaceOnUse">
<stop stop-color="#D94032"/>
<stop offset="1" stop-color="white"/>
</linearGradient>
<linearGradient id="paint7_linear" x1="0.999998" y1="1" x2="220.5" y2="113" gradientUnits="userSpaceOnUse">
<stop stop-color="#D94032"/>
<stop offset="1" stop-color="white"/>
</linearGradient>
<linearGradient id="paint8_linear" x1="0.999998" y1="1" x2="220.5" y2="113" gradientUnits="userSpaceOnUse">
<stop stop-color="#D94032"/>
<stop offset="1" stop-color="white"/>
</linearGradient>
</defs>
</svg>
