<svg width="576" height="35" viewBox="0 0 576 384" fill="none" xmlns="http://www.w3.org/2000/svg">
<path d="M128 96H448V288H128V96ZM528 192C528 218.51 549.49 240 576 240V336C576 362.51 554.51 384 528 384H48C21.49 384 0 362.51 0 336V240C26.51 240 48 218.51 48 192C48 165.49 26.51 144 0 144V48C0 21.49 21.49 0 48 0H528C554.51 0 576 21.49 576 48V144C549.49 144 528 165.49 528 192ZM480 88C480 74.745 469.255 64 456 64H120C106.745 64 96 74.745 96 88V296C96 309.255 106.745 320 120 320H456C469.255 320 480 309.255 480 296V88Z" fill="#E50914"/>
</svg>
