<svg width="302" height="50" viewBox="0 0 302 50" fill="none" xmlns="http://www.w3.org/2000/svg">
<path d="M85.3178 1.7393L79.215 14.6674L65.5608 16.7472C63.1122 17.1183 62.1309 20.2722 63.9066 22.0786L73.7851 32.1359L71.4486 46.3432C71.0281 48.9112 73.6168 50.8348 75.7851 49.6338L88 42.9256L100.215 49.6338C102.383 50.825 104.972 48.9112 104.551 46.3432L102.215 32.1359L112.093 22.0786C113.869 20.2722 112.888 17.1183 110.439 16.7472L96.785 14.6674L90.6822 1.7393C89.5888 -0.565097 86.4206 -0.594391 85.3178 1.7393Z" fill="#D94032"/>
<path d="M148.318 1.7393L142.215 14.6674L128.561 16.7472C126.112 17.1183 125.131 20.2722 126.907 22.0786L136.785 32.1359L134.449 46.3432C134.028 48.9112 136.617 50.8348 138.785 49.6338L151 42.9256L163.215 49.6338C165.383 50.825 167.972 48.9112 167.551 46.3432L165.215 32.1359L175.093 22.0786C176.869 20.2722 175.888 17.1183 173.439 16.7472L159.785 14.6674L153.682 1.7393C152.589 -0.565097 149.421 -0.594391 148.318 1.7393Z" fill="#D94032"/>
<path d="M211.318 1.7393L205.215 14.6674L191.561 16.7472C189.112 17.1183 188.131 20.2722 189.907 22.0786L199.785 32.1359L197.449 46.3432C197.028 48.9112 199.617 50.8348 201.785 49.6338L214 42.9256L226.215 49.6338C228.383 50.825 230.972 48.9112 230.551 46.3432L228.215 32.1359L238.093 22.0786C239.869 20.2722 238.888 17.1183 236.439 16.7472L222.785 14.6674L216.682 1.7393C215.589 -0.565097 212.421 -0.594391 211.318 1.7393Z" fill="#D94032"/>
<path d="M274.318 1.7393L268.215 14.6674L254.561 16.7472C252.112 17.1183 251.131 20.2722 252.907 22.0786L262.785 32.1359L260.449 46.3432C260.028 48.9112 262.617 50.8348 264.785 49.6338L277 42.9256L289.215 49.6338C291.383 50.825 293.972 48.9112 293.551 46.3432L291.215 32.1359L301.093 22.0786C302.869 20.2722 301.888 17.1183 299.439 16.7472L285.785 14.6674L279.682 1.7393C278.589 -0.565097 275.421 -0.594391 274.318 1.7393Z" fill="#D94032"/>
<path d="M22.3178 1.7393L16.215 14.6674L2.56079 16.7472C0.112194 17.1183 -0.869113 20.2722 0.906585 22.0786L10.7851 32.1359L8.44863 46.3432C8.02807 48.9112 10.6168 50.8348 12.7851 49.6338L25 42.9256L37.2149 49.6338C39.3832 50.825 41.9719 48.9112 41.5514 46.3432L39.2149 32.1359L49.0934 22.0786C50.8691 20.2722 49.8878 17.1183 47.4392 16.7472L33.785 14.6674L27.6822 1.7393C26.5888 -0.565098 23.4206 -0.594392 22.3178 1.7393Z" fill="#D94032"/>
</svg>
